<svg width="32" height="32" viewBox="0 0 32 32" fill="none" xmlns="http://www.w3.org/2000/svg">
<path d="M18.3334 2.66667H13.6667C12.9288 2.66669 12.2168 2.93868 11.6668 3.43063C11.1168 3.92259 10.7674 4.59999 10.6854 5.33334H8.33337C7.53772 5.33334 6.77466 5.64941 6.21205 6.21202C5.64944 6.77463 5.33337 7.53769 5.33337 8.33334V26.3333C5.33337 27.129 5.64944 27.892 6.21205 28.4547C6.77466 29.0173 7.53772 29.3333 8.33337 29.3333H23.6667C24.0607 29.3333 24.4508 29.2557 24.8148 29.105C25.1787 28.9542 25.5095 28.7332 25.788 28.4547C26.0666 28.1761 26.2876 27.8454 26.4383 27.4814C26.5891 27.1174 26.6667 26.7273 26.6667 26.3333V8.33334C26.6667 7.93937 26.5891 7.54926 26.4383 7.18529C26.2876 6.82131 26.0666 6.49059 25.788 6.21202C25.5095 5.93344 25.1787 5.71246 24.8148 5.5617C24.4508 5.41094 24.0607 5.33334 23.6667 5.33334H21.3147C21.2327 4.59999 20.8833 3.92259 20.3333 3.43063C19.7833 2.93868 19.0713 2.66669 18.3334 2.66667ZM13.6667 4.66667H18.3334C18.5986 4.66667 18.8529 4.77203 19.0405 4.95956C19.228 5.1471 19.3334 5.40146 19.3334 5.66667C19.3334 5.93189 19.228 6.18624 19.0405 6.37378C18.8529 6.56131 18.5986 6.66667 18.3334 6.66667H13.6667C13.4015 6.66667 13.1471 6.56131 12.9596 6.37378C12.7721 6.18624 12.6667 5.93189 12.6667 5.66667C12.6667 5.40146 12.7721 5.1471 12.9596 4.95956C13.1471 4.77203 13.4015 4.66667 13.6667 4.66667ZM16.6667 13.6667C16.6667 13.4015 16.7721 13.1471 16.9596 12.9596C17.1471 12.772 17.4015 12.6667 17.6667 12.6667H22.3334C22.5986 12.6667 22.8529 12.772 23.0405 12.9596C23.228 13.1471 23.3334 13.4015 23.3334 13.6667C23.3334 13.9319 23.228 14.1862 23.0405 14.3738C22.8529 14.5613 22.5986 14.6667 22.3334 14.6667H17.6667C17.4015 14.6667 17.1471 14.5613 16.9596 14.3738C16.7721 14.1862 16.6667 13.9319 16.6667 13.6667ZM17.6667 20H22.3334C22.5986 20 22.8529 20.1054 23.0405 20.2929C23.228 20.4804 23.3334 20.7348 23.3334 21C23.3334 21.2652 23.228 21.5196 23.0405 21.7071C22.8529 21.8946 22.5986 22 22.3334 22H17.6667C17.4015 22 17.1471 21.8946 16.9596 21.7071C16.7721 21.5196 16.6667 21.2652 16.6667 21C16.6667 20.7348 16.7721 20.4804 16.9596 20.2929C17.1471 20.1054 17.4015 20 17.6667 20ZM14.3734 13.04L11.7067 15.7067C11.5192 15.8939 11.265 15.9991 11 15.9991C10.735 15.9991 10.4809 15.8939 10.2934 15.7067L8.96004 14.3733C8.86179 14.2818 8.78299 14.1714 8.72833 14.0487C8.67368 13.9261 8.64429 13.7936 8.64192 13.6594C8.63955 13.5251 8.66425 13.3917 8.71454 13.2672C8.76484 13.1427 8.8397 13.0296 8.93466 12.9346C9.02961 12.8397 9.14273 12.7648 9.26724 12.7145C9.39176 12.6642 9.52513 12.6395 9.6594 12.6419C9.79367 12.6443 9.92609 12.6736 10.0488 12.7283C10.1714 12.783 10.2818 12.8618 10.3734 12.96L11 13.5867L12.96 11.6267C13.0516 11.5284 13.162 11.4496 13.2847 11.395C13.4073 11.3403 13.5397 11.3109 13.674 11.3085C13.8083 11.3062 13.9417 11.3309 14.0662 11.3812C14.1907 11.4315 14.3038 11.5063 14.3988 11.6013C14.4937 11.6962 14.5686 11.8094 14.6189 11.9339C14.6692 12.0584 14.6939 12.1918 14.6915 12.326C14.6891 12.4603 14.6597 12.5927 14.6051 12.7154C14.5504 12.8381 14.4716 12.9485 14.3734 13.04ZM14.3734 18.96C14.5606 19.1475 14.6658 19.4017 14.6658 19.6667C14.6658 19.9317 14.5606 20.1858 14.3734 20.3733L11.7067 23.04C11.5192 23.2273 11.265 23.3325 11 23.3325C10.735 23.3325 10.4809 23.2273 10.2934 23.04L8.96004 21.7067C8.86179 21.6151 8.78299 21.5047 8.72833 21.3821C8.67368 21.2594 8.64429 21.127 8.64192 20.9927C8.63955 20.8584 8.66425 20.7251 8.71454 20.6005C8.76484 20.476 8.8397 20.3629 8.93466 20.268C9.02961 20.173 9.14273 20.0981 9.26724 20.0478C9.39176 19.9975 9.52513 19.9728 9.6594 19.9752C9.79367 19.9776 9.92609 20.007 10.0488 20.0616C10.1714 20.1163 10.2818 20.1951 10.3734 20.2933L11 20.92L12.96 18.96C13.1475 18.7727 13.4017 18.6676 13.6667 18.6676C13.9317 18.6676 14.1859 18.7727 14.3734 18.96Z" fill="#454545"/>
</svg>
