<svg width="32" height="32" viewBox="0 0 32 32" fill="none" xmlns="http://www.w3.org/2000/svg">
<path d="M16 2.66667C13.3629 2.66667 10.785 3.44865 8.59236 4.91374C6.39971 6.37882 4.69074 8.4612 3.68157 10.8976C2.6724 13.3339 2.40836 16.0148 2.92283 18.6012C3.4373 21.1876 4.70717 23.5634 6.57188 25.4281C8.43658 27.2928 10.8123 28.5627 13.3988 29.0771C15.9852 29.5916 18.6661 29.3276 21.1024 28.3184C23.5388 27.3092 25.6211 25.6003 27.0862 23.4076C28.5513 21.2149 29.3333 18.6371 29.3333 16C29.3333 14.249 28.9884 12.5152 28.3184 10.8976C27.6483 9.27988 26.6662 7.81002 25.4281 6.57191C24.1899 5.33379 22.7201 4.35167 21.1024 3.68161C19.4847 3.01154 17.7509 2.66667 16 2.66667ZM13.3333 22V10L21.3333 16L13.3333 22Z" fill="#454545"/>
</svg>
