<svg width="32" height="32" viewBox="0 0 32 32" fill="none" xmlns="http://www.w3.org/2000/svg">
<path d="M25.3969 5H3.28048C2.74724 5 2.23584 5.21071 1.85878 5.58579C1.48173 5.96086 1.2699 6.46957 1.2699 7V25C1.2699 25.5304 1.48173 26.0391 1.85878 26.4142C2.23584 26.7893 2.74724 27 3.28048 27H4.96309C5.15334 27.0001 5.33972 26.9464 5.50054 26.8453C5.66137 26.7442 5.79004 26.5997 5.87162 26.4288C6.36046 25.4021 7.13227 24.5346 8.09726 23.9271C9.06226 23.3196 10.1808 22.9971 11.3228 22.9971C12.4648 22.9971 13.5834 23.3196 14.5484 23.9271C15.5134 24.5346 16.2852 25.4021 16.774 26.4288C16.8556 26.5997 16.9842 26.7442 17.1451 26.8453C17.3059 26.9464 17.4923 27.0001 17.6825 27H25.3969C25.9301 27 26.4415 26.7893 26.8186 26.4142C27.1956 26.0391 27.4075 25.5304 27.4075 25V7C27.4075 6.46957 27.1956 5.96086 26.8186 5.58579C26.4415 5.21071 25.9301 5 25.3969 5ZM11.3228 21C10.5275 21 9.75005 20.7654 9.08877 20.3259C8.42749 19.8864 7.91209 19.2616 7.60774 18.5307C7.30338 17.7998 7.22375 16.9956 7.37891 16.2196C7.53407 15.4437 7.91705 14.731 8.47941 14.1716C9.04178 13.6122 9.75829 13.2312 10.5383 13.0769C11.3183 12.9225 12.1269 13.0017 12.8616 13.3045C13.5964 13.6072 14.2244 14.1199 14.6663 14.7777C15.1081 15.4355 15.344 16.2089 15.344 17C15.344 18.0609 14.9203 19.0783 14.1662 19.8284C13.4121 20.5786 12.3893 21 11.3228 21ZM25.3969 25H18.2882C17.85 24.2483 17.2914 23.5728 16.6345 23H22.381C22.6476 23 22.9033 22.8946 23.0919 22.7071C23.2804 22.5196 23.3863 22.2652 23.3863 22V10C23.3863 9.73479 23.2804 9.48043 23.0919 9.29289C22.9033 9.10536 22.6476 9 22.381 9H6.29635C6.02973 9 5.77403 9.10536 5.5855 9.29289C5.39698 9.48043 5.29106 9.73479 5.29106 10V22C5.29095 22.2218 5.36496 22.4373 5.50144 22.6127C5.63793 22.7881 5.82915 22.9133 6.04503 22.9688C5.37301 23.5479 4.80266 24.2344 4.3574 25H3.28048V7H25.3969V25Z" fill="#454545"/>
</svg>
