<svg width="456" height="456" viewBox="0 0 456 456" fill="none" xmlns="http://www.w3.org/2000/svg">
<path d="M347.878 380.19C363.048 380.19 375.345 360.46 375.345 336.122C375.345 311.784 363.048 292.054 347.878 292.054C332.709 292.054 320.411 311.784 320.411 336.122C320.411 360.46 332.709 380.19 347.878 380.19Z" fill="white"/>
<path d="M93.5156 244.815L350.846 223.411L356.517 291.576L99.1871 312.983L93.5156 244.815Z" fill="#2F2F2F"/>
<path d="M445.633 328.605L411.825 322.513C413.036 316.386 413.784 310.116 414.212 303.774L446.096 299.036C447.084 298.892 448.033 298.554 448.889 298.042C449.746 297.53 450.493 296.855 451.089 296.054C451.684 295.254 452.116 294.344 452.36 293.376C452.604 292.408 452.654 291.402 452.509 290.415C451.903 286.283 448.056 283.504 443.852 284.038L414.568 288.384C414.497 284.822 414.39 281.259 414.141 277.697C413.25 264.444 410.293 251.085 405.555 238.117C416.029 208.513 448.768 108.549 423.831 81.8306C404.807 61.4531 338.117 105.094 316.101 121.268C308.156 127.039 301.352 131.991 295.474 136.159C273.529 129.533 249.731 126.077 226.148 126.077C202.172 126.041 177.983 129.639 155.717 136.479C148.877 132.489 140.683 127.609 130.993 121.731C107.766 107.587 37.5488 69.825 20.3419 91.77C-0.0355933 117.812 31.7419 199.429 47.595 235.98C42.3938 249.624 39.1519 263.696 38.2257 277.697C37.9763 281.081 37.8694 284.466 37.7982 287.814L12.1482 284.003C8.01566 283.468 4.13253 286.247 3.52691 290.379C2.92128 294.548 5.77128 298.431 9.93941 299.001L38.1544 303.204C38.5819 309.902 39.4013 316.564 40.6838 323.083L10.4025 328.534C9.42006 328.711 8.48221 329.081 7.64255 329.621C6.80289 330.161 6.07787 330.862 5.50887 331.682C4.93987 332.503 4.53804 333.427 4.32634 334.403C4.11464 335.378 4.0972 336.386 4.27503 337.369C4.59912 339.117 5.52432 340.698 6.89051 341.836C8.25669 342.975 9.97791 343.6 11.7563 343.603C12.1838 343.603 12.6469 343.567 13.11 343.496L44.6025 337.832C46.9182 344.85 49.9819 351.654 53.7938 358.174L23.6907 367.721C21.7697 368.333 20.1698 369.682 19.2416 371.472C18.3134 373.261 18.1325 375.346 18.7388 377.269C19.7719 380.511 22.7644 382.541 25.9707 382.541C26.7188 382.541 27.5025 382.434 28.2863 382.185L62.8069 371.213C68.6642 378.415 75.4025 384.854 82.8638 390.379C104.417 406.481 131.207 417.347 158.852 423.261C169.361 425.505 196.472 430.742 224.936 430.742C253.401 430.742 283.183 425.505 293.693 423.261C321.302 417.347 348.128 406.481 369.681 390.379C377.91 384.216 384.75 377.483 390.414 370.286L427.821 382.149C428.569 382.399 429.353 382.506 430.136 382.506C433.343 382.506 436.335 380.475 437.368 377.233C438.615 373.243 436.406 368.933 432.416 367.686L399.249 357.141C402.883 350.728 405.804 344.031 408.049 337.155L442.961 343.461C444.944 343.805 446.982 343.356 448.635 342.209C450.289 341.062 451.424 339.311 451.796 337.333C452.509 333.308 449.766 329.353 445.633 328.605ZM184.823 264.694C184.466 265.691 176.308 288.42 149.376 293.657C145.92 294.334 142.678 294.654 139.614 294.654C118.56 294.654 106.198 280.832 105.628 280.191C102.849 277.02 103.17 272.246 106.341 269.432C109.476 266.689 114.285 267.009 117.064 270.144C117.491 270.572 128.286 282.293 146.454 278.766C164.623 275.203 170.252 260.312 170.501 259.635C171.926 255.716 176.273 253.686 180.191 255.075C184.11 256.464 186.176 260.739 184.823 264.694ZM300.176 291.733C273.279 286.283 265.228 263.482 264.908 262.556C263.554 258.566 265.691 254.256 269.646 252.902C273.6 251.548 277.911 253.65 279.264 257.604C279.514 258.317 285.107 273.208 303.169 276.842C321.302 280.476 332.239 268.862 332.702 268.363C335.516 265.264 340.326 265.05 343.425 267.829C346.524 270.608 346.809 275.381 344.031 278.481C343.425 279.122 331.099 292.731 310.223 292.731C307.052 292.731 303.703 292.446 300.176 291.733ZM371.498 347.985C368.648 361.095 354.683 372.281 341.679 364.052C332.524 358.281 331.954 348.413 333.806 338.188C335.409 329.211 338.865 319.948 339.969 312.966C340.326 310.757 340.219 308.334 340.29 306.126C340.361 303.169 339.791 295.973 344.066 295.652C347.059 295.402 350.301 298.217 352.581 299.82C358.103 303.846 362.413 310.971 365.869 316.813C371.391 326.218 373.813 337.155 371.498 347.985Z" fill="#F79329"/>
</svg>
