<svg width="32" height="34" viewBox="0 0 32 34" fill="none" xmlns="http://www.w3.org/2000/svg">
<g clip-path="url(#clip0_16_163)">
<path d="M7.46672 11.077C6.61803 11.077 5.8041 11.4251 5.20398 12.0447C4.60387 12.6644 4.26672 13.5048 4.26672 14.3811V17.6853H10.6667V14.3811C10.6667 13.5048 10.3296 12.6644 9.72947 12.0447C9.12935 11.4251 8.31542 11.077 7.46672 11.077Z" fill="#454545"/>
<path fill-rule="evenodd" clip-rule="evenodd" d="M0 5.57002C0 4.6937 0.337142 3.85328 0.937258 3.23362C1.53737 2.61397 2.35131 2.26585 3.2 2.26585H11.7333C12.582 2.26585 13.396 2.61397 13.9961 3.23362C14.5962 3.85328 14.9333 4.6937 14.9333 5.57002V27.5978C14.9333 28.4742 14.5962 29.3146 13.9961 29.9342C13.396 30.5539 12.582 30.902 11.7333 30.902H3.2C2.35131 30.902 1.53737 30.5539 0.937258 29.9342C0.337142 29.3146 0 28.4742 0 27.5978L0 5.57002ZM4.26667 24.2937V19.8881H10.6667V24.2937H12.8V14.3811C12.8 12.9206 12.2381 11.5199 11.2379 10.4871C10.2377 9.45439 8.88116 8.8742 7.46667 8.8742C6.05218 8.8742 4.69562 9.45439 3.69543 10.4871C2.69524 11.5199 2.13333 12.9206 2.13333 14.3811V24.2937H4.26667Z" fill="#454545"/>
<path d="M25.6 15.4825H21.3334V11.077H25.6C26.1658 11.077 26.7085 11.3091 27.1085 11.7222C27.5086 12.1353 27.7334 12.6955 27.7334 13.2798C27.7334 13.864 27.5086 14.4243 27.1085 14.8374C26.7085 15.2505 26.1658 15.4825 25.6 15.4825ZM25.6 22.0909H21.3334V17.6853H25.6C26.1658 17.6853 26.7085 17.9174 27.1085 18.3305C27.5086 18.7436 27.7334 19.3039 27.7334 19.8881C27.7334 20.4723 27.5086 21.0326 27.1085 21.4457C26.7085 21.8588 26.1658 22.0909 25.6 22.0909Z" fill="#454545"/>
<path fill-rule="evenodd" clip-rule="evenodd" d="M17.0667 5.57002C17.0667 4.6937 17.4038 3.85328 18.0039 3.23362C18.604 2.61397 19.418 2.26585 20.2667 2.26585H28.8C29.6487 2.26585 30.4626 2.61397 31.0627 3.23362C31.6628 3.85328 32 4.6937 32 5.57002V27.5978C32 28.4742 31.6628 29.3146 31.0627 29.9342C30.4626 30.5539 29.6487 30.902 28.8 30.902H20.2667C19.418 30.902 18.604 30.5539 18.0039 29.9342C17.4038 29.3146 17.0667 28.4742 17.0667 27.5978V5.57002ZM25.6 8.8742H19.2V24.2937H25.6C26.4667 24.2937 27.3128 24.0212 28.0258 23.5125C28.7388 23.0038 29.2849 22.2829 29.5913 21.4458C29.8977 20.6087 29.95 19.6952 29.7412 18.8266C29.5324 17.9581 29.0724 17.1758 28.4224 16.5839C29.0724 15.992 29.5324 15.2097 29.7412 14.3412C29.95 13.4727 29.8977 12.5591 29.5913 11.722C29.2849 10.8849 28.7388 10.1641 28.0258 9.65534C27.3128 9.14661 26.4667 8.87414 25.6 8.8742Z" fill="#454545"/>
</g>
<defs>
<clipPath id="clip0_16_163">
<rect width="32" height="33.0417" fill="white" transform="translate(0 0.0630722)"/>
</clipPath>
</defs>
</svg>
